<svg width="14" height="14" viewBox="0 0 14 14" fill="none" xmlns="http://www.w3.org/2000/svg">
<path d="M2.77773 11.6755L2.76529 11.6669C2.73676 11.6389 2.71411 11.6054 2.69864 11.5685C2.68318 11.5315 2.67522 11.4919 2.67522 11.4519C2.67522 11.4119 2.68318 11.3722 2.69864 11.3353C2.71411 11.2984 2.73676 11.2649 2.76529 11.2368L3.7764 10.2257C3.83083 10.171 3.90402 10.1391 3.98115 10.1363C4.05827 10.1336 4.13355 10.1602 4.19173 10.2109C4.96659 10.8947 5.96533 11.2705 6.99873 11.2672C7.69379 11.2662 8.3781 11.0955 8.99214 10.7698C9.60619 10.4441 10.1314 9.9734 10.522 9.39851C10.9127 8.82363 11.157 8.16201 11.2337 7.4712C11.3104 6.78038 11.2172 6.08129 10.9622 5.4347C10.7072 4.78812 10.2981 4.21362 9.77042 3.76118C9.24278 3.30873 8.6126 2.99203 7.93468 2.83862C7.25676 2.68521 6.55163 2.69973 5.8806 2.88092C5.20957 3.06211 4.59296 3.40449 4.0844 3.87827L2.64317 2.44405C3.52969 1.59688 4.64416 1.02683 5.84993 0.803808C7.05569 0.580789 8.30033 0.714495 9.43122 1.18853C10.5621 1.66256 11.5301 2.45632 12.2164 3.47246C12.9028 4.4886 13.2776 5.68295 13.2951 6.90904C13.3126 8.13513 12.9718 9.33967 12.3147 10.3749C11.6576 11.4102 10.7126 12.2312 9.59566 12.7372C8.47873 13.2433 7.2384 13.4124 6.02677 13.2238C4.81515 13.0352 3.68489 12.4971 2.77462 11.6755H2.77773ZM1.30851 5.98216C1.22861 5.98247 1.14943 5.96701 1.07551 5.93667C1.0016 5.90633 0.93439 5.8617 0.877746 5.80535C0.821103 5.74899 0.776134 5.68202 0.745415 5.60825C0.714697 5.53449 0.698832 5.4554 0.69873 5.37549V1.96805C0.699062 1.84744 0.735105 1.72964 0.802313 1.62949C0.869521 1.52935 0.964884 1.45135 1.07637 1.40534C1.18786 1.35933 1.31047 1.34737 1.42875 1.37097C1.54702 1.39457 1.65566 1.45267 1.74095 1.53794L5.14529 4.94227C5.23066 5.02754 5.28877 5.13624 5.31227 5.25459C5.33576 5.37294 5.32357 5.4956 5.27724 5.60701C5.23091 5.71842 5.15253 5.81355 5.05204 5.88034C4.95156 5.94714 4.8335 5.98257 4.71284 5.98216H1.30851Z" fill="#BED0F9"/>
</svg>
